<?xml version="1.0" encoding="UTF-8" standalone="no"?>
<!-- Created with DrawBerry (http://raphaelbost.free.fr/) -->
<svg 
 	 width = "128.000000" 
 	 height = "128.000000" 
xmlns:dc="http://purl.org/dc/elements/1.1/"
xmlns:cc="http://web.resource.org/cc/"
xmlns:rdf="http://www.w3.org/1999/02/22-rdf-syntax-ns#"
 xmlns:svg="http://www.w3.org/2000/svg"
 xmlns="http://www.w3.org/2000/svg" 
 xmlns:sodipodi="http://inkscape.sourceforge.net/DTD/sodipodi-0.dtd"
 xmlns:inkscape="http://www.inkscape.org/namespaces/inkscape"
 >
<g inkscape:label="Arrière-Plan" inkscape:groupmode="layer" id="Arrière-Plan">
<path  style="fill:#000000;fill-opacity:1.000000;stroke:#000000;stroke-width:1.000000px;stroke-opacity:1.000000;stroke-linecap:butt;stroke-linejoin:miter;" 
 d="M 44.055191,91.488037 C 44.055191,91.488037 44.757095,91.694839 44.757095,91.694839 C 45.639122,91.300369 47.412193,91.910126 48.352760,92.207977 C 46.620872,90.289696 44.011711,87.473068 42.131859,85.697372 C 41.514725,83.547806 41.778015,81.384407 41.910751,79.190140 C 41.910751,79.190140 41.937378,79.008575 41.937378,79.008575 C 41.196335,80.765320 40.255997,82.472931 39.750618,84.322144 C 39.159134,86.816879 42.379227,89.508705 43.627884,91.051224 M 97.730583,102.039017 C 92.897682,101.902718 90.771744,101.914345 88.310211,97.870796 C 88.310211,97.870796 86.392014,97.925705 86.392014,97.925705 C 84.159050,97.826569 85.089615,97.871437 83.599907,97.797325 C 81.109192,97.700554 81.508110,95.336151 81.070023,94.087357 C 80.369179,89.847229 81.997604,85.585037 81.946136,81.344208 C 81.927933,79.838593 79.795563,74.509827 79.033829,72.604645 C 76.645592,73.053864 74.244453,73.139633 71.821640,73.260056 C 66.237099,73.246468 60.690277,72.563339 55.183632,71.695709 C 54.110634,76.124359 50.920746,82.322815 53.557404,86.823669 C 56.757629,91.478935 59.003365,92.768623 62.484352,93.049553 C 65.965385,93.330109 66.751358,97.256302 65.909279,98.658340 C 65.163872,99.627747 63.853722,99.803452 62.740585,100.038277 C 62.740585,100.038277 60.514038,100.142990 60.514038,100.142990 C 58.761971,100.083885 57.195892,99.611397 55.634766,98.882530 C 53.027519,97.428482 50.334709,94.405746 48.334053,92.235733 C 48.799835,93.102486 49.077614,94.794128 48.655075,95.581398 C 47.472328,97.255669 42.356346,97.245354 40.013351,96.204956 C 37.351830,95.023521 30.920427,86.727509 29.926212,80.514305 C 32.571545,75.516724 36.425140,71.163635 38.374832,65.722092 C 34.125084,63.012623 31.848827,58.602615 32.144489,53.607258 C 32.144489,53.607258 32.251060,53.028866 32.251060,53.028866 C 28.069393,53.810951 30.238056,53.520180 25.739506,53.859982 C 11.413877,53.816246 -1.184464,44.112366 5.909344,29.031094 C 6.370502,28.137978 6.809505,27.325951 7.591466,27.713833 C 8.219367,28.024883 8.129183,29.273094 7.813349,30.657190 C 3.758364,48.677475 23.576799,48.815411 35.759663,45.480812 C 36.968590,45.149612 39.373558,42.920399 41.039253,42.181259 C 43.762207,40.973381 46.717758,40.483139 49.650864,40.130039 C 56.946007,39.299568 65.713928,43.139145 70.168823,43.264263 C 74.623871,43.389847 80.961220,42.198616 84.851562,42.449448 C 87.674049,42.578362 90.446007,43.087517 93.169518,43.812248 C 94.932381,35.231262 95.057030,28.906570 99.236206,27.442383 C 101.688850,27.829363 103.578987,31.168343 104.977814,32.952557 C 104.977814,32.952557 104.983627,32.951855 104.983627,32.951855 C 107.832619,32.839317 110.543915,33.561478 113.239616,34.362862 C 118.120186,33.670891 122.215645,30.932974 126.525612,28.803205 C 126.512207,28.870157 126.441650,28.892807 126.399864,28.938030 C 122.157951,32.364967 121.565651,38.159885 122.064873,43.518562 C 122.250160,46.299362 121.463837,49.318295 120.491554,52.165504 C 118.671829,56.804192 115.157852,61.693439 111.079285,61.442577 C 109.537483,61.393894 108.641808,60.521675 107.495972,59.590633 C 107.273689,61.476757 106.400101,63.159611 105.557823,64.827606 C 103.612862,68.526009 98.530319,70.156021 93.824036,74.105042 C 89.118286,78.054169 95.329948,92.158218 96.836220,94.728027 C 98.341904,97.297859 102.545807,98.238617 100.914665,100.557831 C 100.415535,101.323929 99.652550,101.597954 98.836922,101.894783 "  />
</g>
</svg>
