<?xml version="1.0" encoding="UTF-8" standalone="no"?>
<!-- Created with DrawBerry (http://raphaelbost.free.fr/) -->
<svg 
 	 width = "24.000000" 
 	 height = "24.000000" 
xmlns:dc="http://purl.org/dc/elements/1.1/"
xmlns:cc="http://web.resource.org/cc/"
xmlns:rdf="http://www.w3.org/1999/02/22-rdf-syntax-ns#"
 xmlns:svg="http://www.w3.org/2000/svg"
 xmlns="http://www.w3.org/2000/svg" 
 xmlns:sodipodi="http://inkscape.sourceforge.net/DTD/sodipodi-0.dtd"
 xmlns:inkscape="http://www.inkscape.org/namespaces/inkscape"
 >
<g inkscape:label="Arrière-Plan" inkscape:groupmode="layer" id="Arrière-Plan">
<path  style="fill:#000000;fill-opacity:1.000000;stroke:#000000;stroke-width:1.000000px;stroke-opacity:1.000000;stroke-linecap:butt;stroke-linejoin:miter;" 
 d="M 7.584573,16.869766 C 7.584573,16.869766 7.714067,16.907921 7.714067,16.907921 C 7.876788,16.835138 8.203910,16.947643 8.377439,17.002598 C 8.057910,16.648670 7.576550,16.129026 7.229729,15.801432 C 7.115861,15.404849 7.164438,15.005711 7.188921,14.600875 C 7.188921,14.600875 7.193838,14.567374 7.193838,14.567374 C 7.057120,14.891498 6.883629,15.206525 6.790403,15.547697 C 6.681273,16.007957 7.275353,16.504597 7.505733,16.789179 M 17.487368,18.816360 C 16.595716,18.791218 16.203499,18.793365 15.749363,18.047350 C 15.749363,18.047350 15.395466,18.057478 15.395466,18.057478 C 14.983500,18.039181 15.155172,18.047459 14.880338,18.033789 C 14.420817,18.015936 14.494408,17.579731 14.413590,17.349319 C 14.284294,16.567043 14.584716,15.780695 14.575227,14.998286 C 14.571873,14.720502 14.178461,13.737379 14.037917,13.385891 C 13.597303,13.468761 13.154309,13.484591 12.707319,13.506807 C 11.677005,13.504292 10.653642,13.378271 9.637706,13.218199 C 9.439733,14.035244 8.851214,15.178840 9.337669,16.009224 C 9.928085,16.868084 10.342419,17.106018 10.984640,17.157871 C 11.626876,17.209627 11.771880,17.933987 11.616517,18.192635 C 11.479006,18.371496 11.237284,18.403908 11.031925,18.447235 C 11.031925,18.447235 10.621127,18.466560 10.621127,18.466560 C 10.297887,18.455648 10.008945,18.368483 9.720937,18.234001 C 9.239915,17.965752 8.743098,17.408073 8.373991,17.007706 C 8.459919,17.167622 8.511170,17.479713 8.433219,17.624954 C 8.215002,17.933861 7.271138,17.931961 6.838868,17.740009 C 6.347826,17.522030 5.161274,15.991475 4.977849,14.845182 C 5.465898,13.923148 6.176869,13.120038 6.536571,12.116108 C 5.752524,11.616221 5.332562,10.802584 5.387114,9.880995 C 5.387114,9.880995 5.406776,9.774280 5.406776,9.774280 C 4.635283,9.918543 5.035392,9.864927 4.205427,9.927596 C 1.562441,9.919535 -0.761890,8.129221 0.546886,5.346833 C 0.631964,5.182039 0.712946,5.032223 0.857220,5.103784 C 0.973068,5.161170 0.956431,5.391461 0.898158,5.646819 C 0.150029,8.971466 3.806421,8.996936 6.054090,8.381720 C 6.277127,8.320596 6.720832,7.909326 7.028142,7.772929 C 7.530509,7.550097 8.075790,7.459633 8.616936,7.394518 C 9.962844,7.241297 11.580475,7.949664 12.402390,7.972756 C 13.224312,7.995955 14.393519,7.776130 15.111261,7.822433 C 15.631996,7.846191 16.143414,7.940156 16.645876,8.073841 C 16.971121,6.490696 16.994108,5.323840 17.765137,5.053711 C 18.217640,5.125094 18.566359,5.741104 18.824436,6.070281 C 18.824436,6.070281 18.825502,6.070198 18.825502,6.070198 C 19.351137,6.049415 19.851345,6.182620 20.348696,6.330491 C 21.249121,6.202840 22.004717,5.697707 22.799879,5.304759 C 22.797409,5.317154 22.784384,5.321291 22.776670,5.329635 C 21.994072,5.961920 21.884798,7.031036 21.976906,8.019666 C 22.011076,8.532720 21.866018,9.089682 21.686628,9.614999 C 21.350908,10.470791 20.702591,11.372831 19.950125,11.326546 C 19.665674,11.317562 19.500418,11.156644 19.289032,10.984886 C 19.248014,11.332869 19.086834,11.643332 18.931442,11.951069 C 18.572617,12.633404 17.634909,12.934130 16.766623,13.662703 C 15.898445,14.391295 17.044460,16.993408 17.322363,17.467518 C 17.600143,17.941641 18.375744,18.115200 18.074810,18.543079 C 17.982727,18.684443 17.841953,18.734985 17.691479,18.789751 "  />
</g>
</svg>
