<?xml version="1.0" encoding="UTF-8" standalone="no"?>
<!-- Created with DrawBerry (http://raphaelbost.free.fr/) -->
<svg 
 	 width = "150.000000" 
 	 height = "150.000000" 
xmlns:dc="http://purl.org/dc/elements/1.1/"
xmlns:cc="http://web.resource.org/cc/"
xmlns:rdf="http://www.w3.org/1999/02/22-rdf-syntax-ns#"
 xmlns:svg="http://www.w3.org/2000/svg"
 xmlns="http://www.w3.org/2000/svg" 
 xmlns:sodipodi="http://inkscape.sourceforge.net/DTD/sodipodi-0.dtd"
 xmlns:inkscape="http://www.inkscape.org/namespaces/inkscape"
 >
<g inkscape:label="Arrière-Plan" inkscape:groupmode="layer" id="Arrière-Plan">
<path  style="fill:#000000;fill-opacity:1.000000;stroke:#000000;stroke-width:1.000000px;stroke-opacity:1.000000;stroke-linecap:butt;stroke-linejoin:miter;" 
 d="M 51.017452,103.193130 C 51.017452,103.193130 51.830780,103.432770 51.830780,103.432770 C 52.852810,102.975685 54.907333,103.682228 55.997185,104.027359 C 53.990395,101.804604 50.967075,98.540878 48.788841,96.483337 C 48.073738,93.992561 48.378826,91.485748 48.532639,88.943184 C 48.532639,88.943184 48.563488,88.732803 48.563488,88.732803 C 47.704807,90.768402 46.615208,92.747063 46.029613,94.889786 C 45.344250,97.780533 49.075462,100.899651 50.522316,102.687012 M 113.212799,115.418900 C 107.612770,115.260941 105.149399,115.274429 102.297134,110.589058 C 102.297134,110.589058 100.074448,110.652679 100.074448,110.652679 C 97.487061,110.537811 98.565331,110.589798 96.839149,110.503914 C 93.953079,110.391769 94.415321,107.652077 93.907700,106.205048 C 93.095589,101.291870 94.982513,96.353134 94.922859,91.439178 C 94.901787,89.694550 92.430923,83.519966 91.548309,81.312378 C 88.780960,81.832901 85.998711,81.932281 83.191315,82.071808 C 76.720329,82.056061 70.293045,81.264481 63.912342,80.259140 C 62.669025,85.390762 58.972797,92.573090 62.027973,97.788399 C 65.736176,103.182617 68.338371,104.677017 72.371895,105.002510 C 76.405487,105.327614 77.316223,109.877014 76.340477,111.501595 C 75.476746,112.624893 73.958641,112.828476 72.668800,113.100578 C 72.668800,113.100578 70.088844,113.221909 70.088844,113.221909 C 68.058662,113.153427 66.243996,112.605934 64.435081,111.761375 C 61.413979,110.076538 58.293732,106.573990 55.975517,104.059540 C 56.515224,105.063835 56.837097,107.024017 56.347485,107.936256 C 54.976994,109.876266 49.048954,109.864326 46.334057,108.658783 C 43.250069,107.289818 35.797798,97.676979 34.645767,90.477554 C 37.710999,84.686707 42.176281,79.642624 44.435455,73.337341 C 39.511135,70.197784 36.873562,65.087769 37.216160,59.299503 C 37.216160,59.299503 37.339653,58.629307 37.339653,58.629307 C 32.494225,59.535530 35.007118,59.198608 29.794502,59.592346 C 13.194958,59.541660 -1.403129,48.297470 6.816684,30.822334 C 7.351043,29.787457 7.859730,28.846529 8.765813,29.295986 C 9.493381,29.656403 9.388882,31.102745 9.022915,32.706543 C 4.324279,53.587204 27.288509,53.747047 41.405170,49.883141 C 42.805992,49.499367 45.592716,46.916298 47.522793,46.059845 C 50.677971,44.660233 54.102665,44.092182 57.501335,43.683022 C 65.954460,42.720741 76.114113,47.169765 81.276146,47.314751 C 86.438347,47.460266 93.781616,46.079956 98.289474,46.370598 C 101.559982,46.519974 104.771942,47.109947 107.927757,47.949730 C 109.970428,38.006668 110.114868,30.678049 114.957405,28.981445 C 117.799370,29.429846 119.989532,33.298832 121.610390,35.366261 C 121.610390,35.366261 121.617119,35.365440 121.617119,35.365440 C 124.918350,35.235039 128.060028,36.071835 131.183609,37.000423 C 136.838867,36.198612 141.584396,33.026100 146.578491,30.558273 C 146.562973,30.635853 146.481186,30.662098 146.432800,30.714497 C 141.517548,34.685402 140.831253,41.400154 141.409683,47.609428 C 141.624405,50.831619 140.713272,54.329742 139.586670,57.628887 C 137.478058,63.003891 133.406326,68.669212 128.680344,68.378525 C 126.893829,68.322128 125.855972,67.311447 124.528275,66.232620 C 124.270699,68.418137 123.258446,70.368118 122.282471,72.300873 C 120.028793,76.586327 114.139496,78.475082 108.686157,83.050934 C 103.233459,87.626900 110.431122,103.969696 112.176483,106.947426 C 113.921173,109.925156 118.792336,111.015236 116.902298,113.702606 C 116.323936,114.590317 115.439842,114.907837 114.494766,115.251770 "  />
</g>
</svg>
