<?xml version="1.0" encoding="UTF-8" standalone="no"?>
<!-- Created with DrawBerry (http://raphaelbost.free.fr/) -->
<svg 
 	 width = "300.000000" 
 	 height = "300.000000" 
xmlns:dc="http://purl.org/dc/elements/1.1/"
xmlns:cc="http://web.resource.org/cc/"
xmlns:rdf="http://www.w3.org/1999/02/22-rdf-syntax-ns#"
 xmlns:svg="http://www.w3.org/2000/svg"
 xmlns="http://www.w3.org/2000/svg" 
 xmlns:sodipodi="http://inkscape.sourceforge.net/DTD/sodipodi-0.dtd"
 xmlns:inkscape="http://www.inkscape.org/namespaces/inkscape"
 >
<g inkscape:label="Arrière-Plan" inkscape:groupmode="layer" id="Arrière-Plan">
<path  style="fill:#000000;fill-opacity:1.000000;stroke:#000000;stroke-width:1.000000px;stroke-opacity:1.000000;stroke-linecap:butt;stroke-linejoin:miter;" 
 d="M 102.713242,212.724350 C 102.713242,212.724350 104.314255,213.196091 104.314255,213.196091 C 106.325974,212.296326 110.370178,213.687103 112.515427,214.366455 C 108.565201,209.991165 102.614059,203.566803 98.326431,199.516739 C 96.918823,194.613892 97.519424,189.679565 97.822144,184.674652 C 97.822144,184.674652 97.882858,184.260498 97.882858,184.260498 C 96.192657,188.267426 94.047852,192.162201 92.895126,196.380020 C 91.546097,202.070206 98.890610,208.209854 101.738617,211.728149 M 225.139114,236.789642 C 214.115997,236.478760 209.267029,236.505249 203.652664,227.282639 C 203.652664,227.282639 199.277542,227.407837 199.277542,227.407837 C 194.184525,227.181702 196.306885,227.284042 192.909073,227.114929 C 187.228165,226.894241 188.137970,221.501404 187.138794,218.653107 C 185.540176,208.981888 189.254486,199.260468 189.137024,189.587891 C 189.095596,186.153625 184.231842,173.999573 182.494568,169.654083 C 177.047226,170.678757 171.570755,170.874359 166.044571,171.149017 C 153.307083,171.118011 140.655533,169.559860 128.095673,167.580948 C 125.648376,177.682129 118.372635,191.819717 124.386459,202.085602 C 131.685760,212.703659 136.807938,215.645279 144.747559,216.285873 C 152.687363,216.925858 154.479996,225.880951 152.559357,229.078751 C 150.859161,231.289871 147.870926,231.690704 145.332031,232.226364 C 145.332031,232.226364 140.253601,232.465057 140.253601,232.465057 C 136.257324,232.330353 132.685318,231.252609 129.124664,229.590240 C 123.177887,226.273758 117.035950,219.379364 112.472763,214.429932 C 113.535156,216.406738 114.168701,220.265121 113.204956,222.060791 C 110.507217,225.879471 98.838455,225.855957 93.494476,223.483032 C 87.423874,220.788300 72.754761,201.866455 70.487122,187.694946 C 76.520752,176.296188 85.310242,166.367401 89.757217,153.956024 C 80.064117,147.776077 74.872330,137.717453 75.546692,126.323776 C 75.546692,126.323776 75.789780,125.004578 75.789780,125.004578 C 66.251991,126.788422 71.198380,126.125168 60.937782,126.900238 C 28.263142,126.800430 -0.471876,104.667358 15.708076,70.269135 C 16.759930,68.232056 17.761219,66.379936 19.544765,67.264656 C 20.976917,67.974113 20.771229,70.821098 20.050835,73.978043 C 10.802006,115.079590 56.004997,115.394318 83.792389,107.788544 C 86.549759,107.033188 92.035202,101.948624 95.834366,100.262764 C 102.045029,97.507790 108.786255,96.389603 115.476181,95.584167 C 132.115448,93.690056 152.113739,102.447586 162.274750,102.732956 C 172.436066,103.019363 186.890549,100.302322 195.763947,100.874451 C 202.201584,101.168472 208.524124,102.329788 214.736008,103.982872 C 218.756836,84.410812 219.041183,69.985123 228.573242,66.645508 C 234.167374,67.528168 238.478394,75.143875 241.669022,79.213425 C 241.669022,79.213425 241.682251,79.211815 241.682251,79.211815 C 248.180496,78.955147 254.364563,80.602310 260.513000,82.430115 C 271.644867,80.851852 280.986023,74.607033 290.816315,69.749359 C 290.785767,69.902054 290.624878,69.953728 290.529633,70.056854 C 280.854370,77.873207 279.503540,91.090599 280.642090,103.312981 C 281.064728,109.655510 279.271271,116.541321 277.053619,123.035286 C 272.903076,133.615570 264.888245,144.767242 255.585602,144.195007 C 252.069031,144.084030 250.026001,142.094574 247.412582,139.971008 C 246.905533,144.272980 244.913071,148.111343 242.991882,151.915863 C 238.555862,160.351410 226.963272,164.069122 216.228867,173.076263 C 205.495743,182.083664 219.663696,214.253006 223.099213,220.114380 C 226.533463,225.975723 236.121948,228.121475 232.401581,233.411255 C 231.263123,235.158722 229.522888,235.783752 227.662521,236.460678 "  />
</g>
</svg>
